<svg width="201" height="150" viewBox="0 0 201 150" fill="none" xmlns="http://www.w3.org/2000/svg">
<g clip-path="url(#clip0_1_8)">
<path d="M145.322 16.0447C129.442 16.0447 114.772 23.0639 114.772 40.5111C114.772 55.1533 130.249 60.9648 149.142 65.9776C173.262 72.393 201 77.0095 201 107.69C201 138.371 172.858 150 147.131 150C115.371 150 91.2519 134.76 91.2519 101.268H110.347C110.75 123.326 125.824 133.955 147.131 133.955C164.014 133.955 181.905 125.735 181.905 108.288C181.905 90.8403 163.812 87.4313 145.524 82.4185C121.808 76.0032 96.2763 68.984 95.6774 41.9074C95.0722 14.2396 119.393 0 145.322 0C174.466 0 193.965 15.0384 195.572 44.5176H176.477C174.264 25.6677 164.821 16.0384 145.322 16.0384V16.0447Z" fill="black"/>
<path d="M0 133.955C35.7758 133.955 55.2744 105.08 55.2744 74.9968C55.2744 44.9138 35.7758 16.0447 0 16.0447V0C46.4297 0 74.3695 34.6933 74.3695 75.0031C74.3695 115.313 46.4297 150 0 150V133.955Z" fill="black"/>
</g>
<defs>
<clipPath id="clip0_1_8">
<rect width="201" height="150" fill="white"/>
</clipPath>
</defs>
</svg>
